HIERARCHY
ROOT hip
{
  OFFSET 0 0 0
  CHANNELS 6 Xposition Yposition Zposition Zrotation Yrotation Xrotation
  JOINT abdomen
  {
    OFFSET 0 20.6881 -0.73152
    CHANNELS 3 Zrotation Xrotation Yrotation
    JOINT chest
    {
      OFFSET 0 11.7043 -0.48768
      CHANNELS 3 Zrotation Xrotation Yrotation
      JOINT neck
      {
        OFFSET 0 22.1894 -2.19456
        CHANNELS 3 Zrotation Xrotation Yrotation
        JOINT head
        {
          OFFSET -0.24384 7.07133 1.2192
          CHANNELS 3 Zrotation Xrotation Yrotation
          JOINT leftEye
          {
            OFFSET 4.14528 8.04674 8.04672
            CHANNELS 3 Zrotation Xrotation Yrotation
            End Site
            {
              OFFSET 1 0 0
            }
          }
          JOINT rightEye
          {
            OFFSET -3.6576 8.04674 8.04672
            CHANNELS 3 Zrotation Xrotation Yrotation
            End Site
            {
              OFFSET 1 0 0
            }
          }
        }
      }
      JOINT rCollar
      {
        OFFSET -2.68224 19.2634 -4.8768
        CHANNELS 3 Zrotation Xrotation Yrotation
        JOINT rShldr
        {
          OFFSET -8.77824 -1.95073 1.46304
          CHANNELS 3 Zrotation Xrotation Yrotation
          JOINT rForeArm
          {
            OFFSET -28.1742 -1.7115 0.48768
            CHANNELS 3 Zrotation Xrotation Yrotation
            JOINT rHand
            {
              OFFSET -22.5879 0.773209 7.07136
              CHANNELS 3 Zrotation Xrotation Yrotation
              JOINT rThumb1
              {
                OFFSET -1.2192 -0.487915 3.41376
                CHANNELS 3 Zrotation Xrotation Yrotation
                JOINT rThumb2
                {
                  OFFSET -3.37035 -0.52449 3.41376
                  CHANNELS 3 Zrotation Xrotation Yrotation
                  End Site
                  {
                    OFFSET -1.78271 -1.18214 1.43049
                  }
                }
              }
              JOINT rIndex1
              {
                OFFSET -7.75947 0.938293 5.60832
                CHANNELS 3 Zrotation Xrotation Yrotation
                JOINT rIndex2
                {
                  OFFSET -2.54057 -0.884171 1.56538
                  CHANNELS 3 Zrotation Xrotation Yrotation
                  End Site
                  {
                    OFFSET -1.62519 -0.234802 1.16502
                  }
                }
              }
              JOINT rMid1
              {
                OFFSET -8.24714 1.18213 3.41376
                CHANNELS 3 Zrotation Xrotation Yrotation
                JOINT rMid2
                {
                  OFFSET -3.10165 -0.590103 1.0647
                  CHANNELS 3 Zrotation Xrotation Yrotation
                  End Site
                  {
                    OFFSET -2.48547 -0.328903 0.83742
                  }
                }
              }
              JOINT rRing1
              {
                OFFSET -8.82822 0.546677 1.51678
                CHANNELS 3 Zrotation Xrotation Yrotation
                JOINT rRing2
                {
                  OFFSET -2.60934 -0.819778 -0.0198488
                  CHANNELS 3 Zrotation Xrotation Yrotation
                  End Site
                  {
                    OFFSET -2.33842 -0.294052 0.168128
                  }
                }
              }
              JOINT rPinky1
              {
                OFFSET -8.27202 -0.0477905 -0.4584
                CHANNELS 3 Zrotation Xrotation Yrotation
                JOINT rPinky2
                {
                  OFFSET -1.82734 -0.647385 -0.700984
                  CHANNELS 3 Zrotation Xrotation Yrotation
                  End Site
                  {
                    OFFSET -1.69225 -0.51767 -0.607171
                  }
                }
              }
            }
          }
        }
      }
      JOINT lCollar
      {
        OFFSET 2.68224 19.2634 -4.8768
        CHANNELS 3 Zrotation Xrotation Yrotation
        JOINT lShldr
        {
          OFFSET 8.77824 -1.95073 1.46304
          CHANNELS 3 Zrotation Xrotation Yrotation
          JOINT lForeArm
          {
            OFFSET 28.1742 -1.7115 0.48768
            CHANNELS 3 Zrotation Xrotation Yrotation
            JOINT lHand
            {
              OFFSET 22.5879 0.773209 7.07136
              CHANNELS 3 Zrotation Xrotation Yrotation
              JOINT lThumb1
              {
                OFFSET 1.2192 -0.487915 3.41376
                CHANNELS 3 Zrotation Xrotation Yrotation
                JOINT lThumb2
                {
                  OFFSET 3.37035 -0.52449 3.41376
                  CHANNELS 3 Zrotation Xrotation Yrotation
                  End Site
                  {
                    OFFSET 1.78271 -1.18214 1.43049
                  }
                }
              }
              JOINT lIndex1
              {
                OFFSET 7.75947 0.938293 5.60832
                CHANNELS 3 Zrotation Xrotation Yrotation
                JOINT lIndex2
                {
                  OFFSET 2.54057 -0.884171 1.56538
                  CHANNELS 3 Zrotation Xrotation Yrotation
                  End Site
                  {
                    OFFSET 1.62519 -0.234802 1.16502
                  }
                }
              }
              JOINT lMid1
              {
                OFFSET 8.24714 1.18213 3.41376
                CHANNELS 3 Zrotation Xrotation Yrotation
                JOINT lMid2
                {
                  OFFSET 3.10165 -0.590103 1.0647
                  CHANNELS 3 Zrotation Xrotation Yrotation
                  End Site
                  {
                    OFFSET 2.48547 -0.328903 0.83742
                  }
                }
              }
              JOINT lRing1
              {
                OFFSET 8.82822 0.546677 1.51678
                CHANNELS 3 Zrotation Xrotation Yrotation
                JOINT lRing2
                {
                  OFFSET 2.60934 -0.819778 -0.0198488
                  CHANNELS 3 Zrotation Xrotation Yrotation
                  End Site
                  {
                    OFFSET 2.33842 -0.294052 0.168128
                  }
                }
              }
              JOINT lPinky1
              {
                OFFSET 8.27202 -0.0477905 -0.4584
                CHANNELS 3 Zrotation Xrotation Yrotation
                JOINT lPinky2
                {
                  OFFSET 1.82734 -0.647385 -0.700984
                  CHANNELS 3 Zrotation Xrotation Yrotation
                  End Site
                  {
                    OFFSET 1.69225 -0.51767 -0.607171
                  }
                }
              }
            }
          }
        }
      }
    }
  }
  JOINT rButtock
  {
    OFFSET -8.77824 4.35084 1.2192
    CHANNELS 3 Zrotation Xrotation Yrotation
    JOINT rThigh
    {
      OFFSET 0 -1.70687 -2.19456
      CHANNELS 3 Zrotation Xrotation Yrotation
      JOINT rShin
      {
        OFFSET 0 -36.8199 0.73152
        CHANNELS 3 Zrotation Xrotation Yrotation
        JOINT rFoot
        {
          OFFSET 0.73152 -45.1104 -5.12064
          CHANNELS 3 Zrotation Xrotation Yrotation
          End Site
          {
            OFFSET -1.1221 -3.69964 12.103
          }
        }
      }
    }
  }
  JOINT lButtock
  {
    OFFSET 8.77824 4.35084 1.2192
    CHANNELS 3 Zrotation Xrotation Yrotation
    JOINT lThigh
    {
      OFFSET 0 -1.70687 -2.19456
      CHANNELS 3 Zrotation Xrotation Yrotation
      JOINT lShin
      {
        OFFSET 0 -36.8199 0.73152
        CHANNELS 3 Zrotation Xrotation Yrotation
        JOINT lFoot
        {
          OFFSET -0.73152 -45.1104 -5.12064
          CHANNELS 3 Zrotation Xrotation Yrotation
          End Site
          {
            OFFSET 1.1221 -3.69964 12.103
          }
        }
      }
    }
  }
}
MOTION
Frames:	8
Frame Time:	0.00833333
106.62 55.5856 240.194 0.0 0.0 0.0 1.57499 -0.0027084 0.0428949 0.434153 0.00151499 0.0751851 1.85325e-14 7.95139e-16 2.98177e-16 5.5492e-14 3.18055e-15 9.19379e-16 -0.0 0.0 0.0 -0.0 0.0 0.0 9.292e-15 -2.79541e-17 3.47873e-16 1.95647e-13 -7.45443e-16 4.57205e-15 3.34565e-12 -1.02235e-12 3.49861e-14 3.82607e-11 8.89238e-13 6.52014e-13 9.02563e-11 -2.88115e-13 1.4885e-12 1.55854e-10 -4.96167e-13 2.57307e-12 9.02602e-11 -2.89033e-13 1.48532e-12 7.73091 5.47488 0.417314 9.02548e-11 -2.88536e-13 1.49168e-12 2.90554 0.965183 0.102902 9.02577e-11 -2.88934e-13 1.49248e-12 10.2786 0.731801 0.0259123 9.0249e-11 -2.84262e-13 1.49804e-12 2.22167 -0.733487 -0.20892 9.09619e-15 -2.87306e-17 4.96962e-17 1.92097e-13 -8.51047e-16 2.5842e-15 3.33899e-12 9.82195e-13 1.59028e-14 3.82645e-11 -1.11429e-12 6.83819e-13 9.02556e-11 -2.8304e-13 1.50122e-12 1.55879e-10 -4.92986e-13 2.59454e-12 9.02546e-11 -2.83865e-13 1.51394e-12 -7.73091 5.47488 -0.417314 9.02569e-11 -2.83666e-13 1.50758e-12 -2.90554 0.965183 -0.102902 9.02515e-11 -2.83169e-13 1.5044e-12 -10.2786 0.731801 -0.0259123 9.02661e-11 -2.77503e-13 1.49804e-12 -2.22167 -0.733487 0.20892 -2.03217e-16 0.0 -3.88251e-19 1.7051 -6.60396 -0.159348 0.00258516 6.39957 0.0733462 -0.528293 0.199789 0.0641218 2.03217e-16 0.0 3.88251e-19 0.692493 -1.9236 0.00557377 0.00917402 -2.07857 0.0757149 0.502463 3.99746 -0.138882
109.964 52.1084 240.128 -175.868 -17.8147 -148.043 1.9781 5.38409 1.09179 -0.0858169 -3.46382 0.205072 -0.424091 -0.805295 -0.460893 0.192701 -10.1979 -1.31609 -0.0 0.0 0.0 -0.0 0.0 0.0 5.92411e-14 4.12825e-14 -2.60241e-14 18.9892 11.1709 1.42347 -23.3903 -21.2873 14.8775 -0.000237281 0.151734 0.0213213 -1.79526e-09 -8.45076e-09 3.61144e-09 -3.09938e-09 -1.46031e-08 6.24224e-09 -1.79526e-09 -8.45076e-09 3.61144e-09 7.73091 5.47488 0.417314 -1.79526e-09 -8.45076e-09 3.61145e-09 2.90554 0.965183 0.102902 -1.79526e-09 -8.45076e-09 3.61145e-09 10.2786 0.731801 0.0259123 -1.79527e-09 -8.45076e-09 3.61145e-09 2.22167 -0.733487 -0.20892 5.90809e-14 4.1271e-14 -2.62656e-14 -20.5512 12.0806 9.38998 18.1657 -15.7472 -15.105 -0.0379147 -4.33484 0.603004 -6.52679e-10 1.09271e-10 -1.73928e-09 -1.10348e-09 1.89184e-10 -3.01274e-09 -6.52684e-10 1.0927e-10 -1.73927e-09 -7.73091 5.47488 -0.417314 -6.52678e-10 1.09271e-10 -1.73928e-09 -2.90554 0.965183 -0.102902 -6.52683e-10 1.09272e-10 -1.73928e-09 -10.2786 0.731801 -0.0259123 -6.52671e-10 1.09276e-10 -1.73928e-09 -2.22167 -0.733487 0.20892 -2.03217e-16 0.0 -3.88251e-19 1.32142 -7.74086 -0.460836 0.301279 21.5864 0.447859 -0.687622 1.00785 -2.16839 2.03217e-16 0.0 3.88251e-19 -0.456328 -25.9304 0.925821 0.140899 19.2764 -0.184015 0.50665 -1.26875 -0.270213
109.136 52.5091 238.141 -177.487 -19.4579 -148.309 2.21646 11.0392 2.28342 -0.638177 -7.12523 0.356445 -0.892134 -1.65551 -0.955793 -0.154024 -20.9394 -2.86537 -0.0 0.0 0.0 -0.0 0.0 0.0 1.13817e-13 8.46812e-14 -5.19045e-14 38.2954 23.0057 3.22624 -33.9544 -38.7948 37.6665 -0.000809618 0.355242 0.0499176 -3.8218e-09 -1.76267e-08 7.45003e-09 -6.59768e-09 -3.04599e-08 1.28773e-08 -3.8218e-09 -1.76267e-08 7.45003e-09 7.73091 5.47488 0.417314 -3.8218e-09 -1.76267e-08 7.45004e-09 2.90554 0.965183 0.102902 -3.8218e-09 -1.76267e-08 7.45004e-09 10.2786 0.731801 0.0259123 -3.82181e-09 -1.76267e-08 7.45004e-09 2.22167 -0.733487 -0.20892 1.13693e-13 8.46579e-14 -5.20847e-14 -46.8607 23.7842 20.9151 27.8015 -28.6869 -34.614 0.0226719 -8.95525 1.25762 -1.4646e-09 1.94079e-10 -3.56284e-09 -2.48061e-09 3.35736e-10 -6.17181e-09 -1.46461e-09 1.94077e-10 -3.56283e-09 -7.73091 5.47488 -0.417314 -1.4646e-09 1.94079e-10 -3.56283e-09 -2.90554 0.965183 -0.102902 -1.46461e-09 1.9408e-10 -3.56283e-09 -10.2786 0.731801 -0.0259123 -1.46459e-09 1.94082e-10 -3.56284e-09 -2.22167 -0.733487 0.20892 -2.03217e-16 0.0 -3.88251e-19 0.961796 -8.7166 -0.71459 0.347811 37.3833 0.98629 -0.787939 2.00793 -4.43592 2.03217e-16 0.0 3.88251e-19 -0.311119 -51.4037 2.75686 0.551952 41.853 -0.586762 0.486105 -6.75356 -0.407079
108.565 52.8273 236.288 -178.541 -19.611 -148.132 2.17215 16.1351 3.30548 -1.07787 -10.3942 0.471458 -1.31117 -2.41526 -1.38377 -1.01801 -30.5238 -4.51224 -0.0 0.0 0.0 -0.0 0.0 0.0 1.59139e-13 1.23903e-13 -7.8768e-14 55.0243 33.4213 5.02146 -30.7453 -43.0984 65.2178 -0.00105064 0.455202 0.0639658 -5.5663e-09 -2.53517e-08 1.08314e-08 -9.60985e-09 -4.38083e-08 1.87216e-08 -5.5663e-09 -2.53517e-08 1.08314e-08 7.73091 5.47488 0.417314 -5.5663e-09 -2.53517e-08 1.08314e-08 2.90554 0.965183 0.102902 -5.5663e-09 -2.53517e-08 1.08314e-08 10.2786 0.731801 0.0259123 -5.56631e-09 -2.53517e-08 1.08314e-08 2.22167 -0.733487 -0.20892 1.5905e-13 1.23871e-13 -7.88962e-14 -74.7357 32.015 33.0462 28.8059 -33.0561 -55.3297 0.166063 -12.9987 1.85129 -2.13855e-09 3.2838e-10 -5.22084e-09 -3.6222e-09 5.68538e-10 -9.04341e-09 -2.13856e-09 3.28377e-10 -5.22083e-09 -7.73091 5.47488 -0.417314 -2.13855e-09 3.28381e-10 -5.22084e-09 -2.90554 0.965183 -0.102902 -2.13855e-09 3.28381e-10 -5.22084e-09 -10.2786 0.731801 -0.0259123 -2.13854e-09 3.28382e-10 -5.22085e-09 -2.22167 -0.733487 0.20892 -2.03217e-16 0.0 -3.88251e-19 0.517609 -10.0136 -1.06962 -0.033557 51.9482 1.7906 -0.817677 2.60856 -6.63932 2.03217e-16 0.0 3.88251e-19 4.60971 -73.7664 8.92849 1.4913 61.9792 -1.43144 0.440904 -11.8007 -0.544867
107.932 53.1149 234.435 -179.777 -19.9483 -147.749 1.90351 19.8586 3.78398 -1.27717 -12.6825 0.488251 -1.57928 -2.94949 -1.64338 -1.97715 -37.2836 -5.87163 -0.0 0.0 0.0 -0.0 0.0 0.0 1.81327e-13 1.52684e-13 -1.08089e-13 67.0305 40.4046 5.95019 -28.3064 -38.2794 80.8904 -0.000107667 0.296288 0.041641 -6.6057e-09 -2.94492e-08 1.30695e-08 -1.14067e-08 -5.08856e-08 2.25889e-08 -6.6057e-09 -2.94492e-08 1.30695e-08 7.73091 5.47488 0.417314 -6.6057e-09 -2.94492e-08 1.30695e-08 2.90554 0.965183 0.102902 -6.60569e-09 -2.94492e-08 1.30695e-08 10.2786 0.731801 0.0259123 -6.6057e-09 -2.94492e-08 1.30695e-08 2.22167 -0.733487 -0.20892 1.81268e-13 1.52648e-13 -1.08189e-13 -96.1574 36.0844 41.6491 28.0503 -30.9207 -68.7204 0.308324 -15.6057 2.24971 -2.46756e-09 5.86413e-10 -6.46498e-09 -4.17496e-09 1.01696e-09 -1.11963e-08 -2.46757e-09 5.8641e-10 -6.46497e-09 -7.73091 5.47488 -0.417314 -2.46756e-09 5.86414e-10 -6.46498e-09 -2.90554 0.965183 -0.102902 -2.46757e-09 5.86415e-10 -6.46497e-09 -10.2786 0.731801 -0.0259123 -2.46756e-09 5.86415e-10 -6.46498e-09 -2.22167 -0.733487 0.20892 -2.03217e-16 0.0 -3.88251e-19 -0.1484 -12.1131 -1.68099 -0.93228 63.4416 2.9199 -0.857791 2.22958 -8.67345 2.03217e-16 0.0 3.88251e-19 66.1843 -86.8822 71.4214 3.61934 75.9793 -3.46028 0.379876 -15.7542 -0.67529
107.228 53.449 232.402 -180.635 -20.3623 -147.601 1.50344 21.6952 3.41881 -1.15806 -13.5999 0.362077 -1.61852 -3.17479 -1.66162 -2.37231 -40.1614 -6.36078 -0.0 0.0 0.0 -0.0 0.0 0.0 1.59051e-13 1.73631e-13 -1.426e-13 73.4647 42.7301 4.95809 -28.3858 -34.5685 83.5803 0.000169445 -0.168259 -0.023708 -6.68689e-09 -2.8366e-08 1.39349e-08 -1.15535e-08 -4.90049e-08 2.40814e-08 -6.68689e-09 -2.8366e-08 1.39349e-08 7.73091 5.47488 0.417314 -6.68689e-09 -2.8366e-08 1.39349e-08 2.90554 0.965183 0.102902 -6.68689e-09 -2.8366e-08 1.39349e-08 10.2786 0.731801 0.0259123 -6.6869e-09 -2.8366e-08 1.39349e-08 2.22167 -0.733487 -0.20892 1.59017e-13 1.73599e-13 -1.4271e-13 -103.973 37.5728 42.6575 27.9379 -28.7705 -72.4734 0.35802 -16.2665 2.35437 -2.26413e-09 1.14085e-09 -7.32195e-09 -3.81598e-09 1.98157e-09 -1.26748e-08 -2.26414e-09 1.14085e-09 -7.32194e-09 -7.73091 5.47488 -0.417314 -2.26413e-09 1.14085e-09 -7.32195e-09 -2.90554 0.965183 -0.102902 -2.26413e-09 1.14085e-09 -7.32194e-09 -10.2786 0.731801 -0.0259123 -2.26412e-09 1.14085e-09 -7.32194e-09 -2.22167 -0.733487 0.20892 -2.03217e-16 0.0 -3.88251e-19 -1.22583 -15.2641 -2.69307 -2.03373 70.7534 4.0636 -1.04557 0.408934 -10.5729 2.03217e-16 0.0 3.88251e-19 134.198 -85.3198 140.259 6.23075 81.38 -6.0475 0.333592 -18.1997 -0.757509
106.575 53.6644 230.431 -181.553 -20.8741 -147.394 1.0601 22.1814 2.42653 -0.811807 -13.5379 0.133371 -1.49205 -3.1792 -1.5075 -2.147 -40.2832 -6.06124 -0.0 0.0 0.0 -0.0 0.0 0.0 1.05589e-13 1.88659e-13 -1.80736e-13 75.9825 41.6894 2.51297 -28.4441 -33.4104 80.0306 -0.00171999 -0.853818 -0.120178 -6.08228e-09 -2.35873e-08 1.38089e-08 -1.05192e-08 -4.07343e-08 2.38589e-08 -6.08228e-09 -2.35873e-08 1.38089e-08 7.73091 5.47488 0.417314 -6.08228e-09 -2.35873e-08 1.38089e-08 2.90554 0.965183 0.102902 -6.08227e-09 -2.35873e-08 1.38089e-08 10.2786 0.731801 0.0259123 -6.08228e-09 -2.35873e-08 1.38089e-08 2.22167 -0.733487 -0.20892 1.05577e-13 1.88637e-13 -1.80882e-13 -101.32 37.6982 37.7193 27.8112 -28.3172 -70.6329 0.324543 -15.5352 2.24243 -1.68273e-09 1.90114e-09 -7.89321e-09 -2.80993e-09 3.30468e-09 -1.36557e-08 -1.68274e-09 1.90114e-09 -7.8932e-09 -7.73091 5.47488 -0.417314 -1.68273e-09 1.90114e-09 -7.89321e-09 -2.90554 0.965183 -0.102902 -1.68274e-09 1.90114e-09 -7.8932e-09 -10.2786 0.731801 -0.0259123 -1.68273e-09 1.90115e-09 -7.8932e-09 -2.22167 -0.733487 0.20892 -2.03217e-16 0.0 -3.88251e-19 -2.71994 -19.1578 -4.03531 -2.90654 75.0809 4.86849 -1.46706 -2.41049 -12.3929 2.03217e-16 0.0 3.88251e-19 98.1627 -87.1875 105.026 5.70316 80.6706 -5.56843 0.304884 -19.5673 -0.803623
105.932 53.8309 228.416 -182.331 -21.3774 -147.192 0.668427 22.0898 1.17711 -0.369377 -13.0807 -0.134174 -1.30807 -3.08501 -1.2923 -1.63631 -39.2763 -5.43986 -0.0 0.0 0.0 -0.0 0.0 0.0 5.8975e-14 1.90466e-13 -2.17521e-13 76.5856 39.1171 -0.325138 -28.3432 -32.6645 73.9696 -0.00508828 -1.71863 -0.241803 -5.15703e-09 -1.74938e-08 1.29221e-08 -8.93027e-09 -3.01929e-08 2.23217e-08 -5.15703e-09 -1.74938e-08 1.29221e-08 7.73091 5.47488 0.417314 -5.15704e-09 -1.74938e-08 1.29221e-08 2.90554 0.965183 0.102902 -5.15703e-09 -1.74938e-08 1.29221e-08 10.2786 0.731801 0.0259123 -5.15704e-09 -1.74938e-08 1.29221e-08 2.22167 -0.733487 -0.20892 5.89812e-14 1.90456e-13 -2.17706e-13 -94.8305 36.7826 30.5337 27.6145 -28.2679 -66.5726 0.259405 -14.1493 2.03165 -1.02941e-09 2.54669e-09 -8.04259e-09 -1.68482e-09 4.4283e-09 -1.39069e-08 -1.02941e-09 2.54669e-09 -8.04258e-09 -7.73091 5.47488 -0.417314 -1.02941e-09 2.54669e-09 -8.04259e-09 -2.90554 0.965183 -0.102902 -1.02942e-09 2.54669e-09 -8.04258e-09 -10.2786 0.731801 -0.0259123 -1.02941e-09 2.54669e-09 -8.04258e-09 -2.22167 -0.733487 0.20892 -2.03217e-16 0.0 -3.88251e-19 -4.48963 -23.4372 -5.54981 -3.55699 78.0444 5.42037 -2.09097 -5.45462 -14.0538 2.03217e-16 0.0 3.88251e-19 17.108 -84.3713 24.6336 4.10373 77.5685 -4.04778 0.256821 -20.4664 -0.88478
